<mxfile host="app.diagrams.net" modified="2021-06-07T13:58:38.864Z" agent="5.0 (Windows NT 10.0; Win64; x64) AppleWebKit/537.36 (KHTML, like Gecko) Chrome/91.0.4472.77 Safari/537.36" etag="_gJwYcLD7pxTUUwJKHIr" version="14.7.4" type="github">
  <diagram id="kgpKYQtTHZ0yAKxKKP6v" name="Page-1">
    <mxGraphModel dx="1185" dy="667" grid="1" gridSize="10" guides="1" tooltips="1" connect="1" arrows="1" fold="1" page="1" pageScale="1" pageWidth="850" pageHeight="1100" math="0" shadow="0">
      <root>
        <mxCell id="0" />
        <mxCell id="1" parent="0" />
        <mxCell id="uBWSTuV5O3R-H1wbQ9qK-1" value="New Patient" style="whiteSpace=wrap;html=1;shape=mxgraph.basic.cloud_rect" vertex="1" parent="1">
          <mxGeometry x="80" y="80" width="120" height="90" as="geometry" />
        </mxCell>
        <mxCell id="uBWSTuV5O3R-H1wbQ9qK-3" value="" style="aspect=fixed;pointerEvents=1;shadow=0;dashed=0;html=1;strokeColor=none;labelPosition=center;verticalLabelPosition=bottom;verticalAlign=top;align=center;fillColor=#00188D;shape=mxgraph.mscae.enterprise.document" vertex="1" parent="1">
          <mxGeometry x="445" y="360" width="40" height="50" as="geometry" />
        </mxCell>
        <mxCell id="uBWSTuV5O3R-H1wbQ9qK-4" value="" style="aspect=fixed;pointerEvents=1;shadow=0;dashed=0;html=1;strokeColor=none;labelPosition=center;verticalLabelPosition=bottom;verticalAlign=top;align=center;fillColor=#00188D;shape=mxgraph.mscae.enterprise.document" vertex="1" parent="1">
          <mxGeometry x="445" y="460" width="40" height="50" as="geometry" />
        </mxCell>
        <mxCell id="uBWSTuV5O3R-H1wbQ9qK-5" value="" style="html=1;verticalLabelPosition=bottom;align=center;labelBackgroundColor=#ffffff;verticalAlign=top;strokeWidth=2;strokeColor=#0080F0;shadow=0;dashed=0;shape=mxgraph.ios7.icons.document;" vertex="1" parent="1">
          <mxGeometry x="447.25" y="237.5" width="35.5" height="45" as="geometry" />
        </mxCell>
        <mxCell id="uBWSTuV5O3R-H1wbQ9qK-6" value="Primary Care&lt;br&gt;Physicians&lt;br&gt;Referral" style="text;html=1;strokeColor=none;fillColor=none;align=center;verticalAlign=middle;whiteSpace=wrap;rounded=0;" vertex="1" parent="1">
          <mxGeometry x="515" y="250" width="40" height="20" as="geometry" />
        </mxCell>
        <mxCell id="uBWSTuV5O3R-H1wbQ9qK-7" value="Providers&lt;br&gt;Evaluation&lt;br&gt;" style="text;html=1;strokeColor=none;fillColor=none;align=center;verticalAlign=middle;whiteSpace=wrap;rounded=0;" vertex="1" parent="1">
          <mxGeometry x="515" y="370" width="40" height="20" as="geometry" />
        </mxCell>
        <mxCell id="uBWSTuV5O3R-H1wbQ9qK-8" value="Provider&#39;s&lt;br&gt;Plan of Care (POC)" style="text;html=1;strokeColor=none;fillColor=none;align=center;verticalAlign=middle;whiteSpace=wrap;rounded=0;" vertex="1" parent="1">
          <mxGeometry x="515" y="465" width="40" height="20" as="geometry" />
        </mxCell>
        <mxCell id="uBWSTuV5O3R-H1wbQ9qK-9" value="First Visit&lt;br&gt;(Evaluation)" style="rounded=0;whiteSpace=wrap;html=1;" vertex="1" parent="1">
          <mxGeometry x="230" y="350" width="120" height="60" as="geometry" />
        </mxCell>
        <mxCell id="uBWSTuV5O3R-H1wbQ9qK-10" value="Referral&lt;br&gt;(?)" style="rhombus;whiteSpace=wrap;html=1;" vertex="1" parent="1">
          <mxGeometry x="250" y="220" width="80" height="80" as="geometry" />
        </mxCell>
        <mxCell id="uBWSTuV5O3R-H1wbQ9qK-11" value="" style="edgeStyle=segmentEdgeStyle;endArrow=classic;html=1;exitX=1;exitY=0.5;exitDx=0;exitDy=0;entryX=0;entryY=0.5;entryDx=0;entryDy=0;entryPerimeter=0;" edge="1" parent="1" source="uBWSTuV5O3R-H1wbQ9qK-10">
          <mxGeometry width="50" height="50" relative="1" as="geometry">
            <mxPoint x="105" y="270" as="sourcePoint" />
            <mxPoint x="445" y="260" as="targetPoint" />
          </mxGeometry>
        </mxCell>
        <mxCell id="uBWSTuV5O3R-H1wbQ9qK-12" value="" style="edgeStyle=segmentEdgeStyle;endArrow=classic;html=1;exitX=0.5;exitY=1;exitDx=0;exitDy=0;exitPerimeter=0;" edge="1" parent="1">
          <mxGeometry width="50" height="50" relative="1" as="geometry">
            <mxPoint x="465" y="285" as="sourcePoint" />
            <mxPoint x="295" y="320" as="targetPoint" />
            <Array as="points">
              <mxPoint x="465" y="320" />
              <mxPoint x="375" y="320" />
            </Array>
          </mxGeometry>
        </mxCell>
        <mxCell id="uBWSTuV5O3R-H1wbQ9qK-13" value="" style="edgeStyle=segmentEdgeStyle;endArrow=classic;html=1;exitX=0.5;exitY=1;exitDx=0;exitDy=0;" edge="1" parent="1" source="uBWSTuV5O3R-H1wbQ9qK-10" target="uBWSTuV5O3R-H1wbQ9qK-9">
          <mxGeometry width="50" height="50" relative="1" as="geometry">
            <mxPoint x="265" y="470" as="sourcePoint" />
            <mxPoint x="315" y="420" as="targetPoint" />
          </mxGeometry>
        </mxCell>
        <mxCell id="uBWSTuV5O3R-H1wbQ9qK-14" value="" style="edgeStyle=segmentEdgeStyle;endArrow=classic;html=1;entryX=0.5;entryY=0;entryDx=0;entryDy=0;exitX=0.5;exitY=1.011;exitDx=0;exitDy=0;exitPerimeter=0;" edge="1" parent="1" source="uBWSTuV5O3R-H1wbQ9qK-1" target="uBWSTuV5O3R-H1wbQ9qK-10">
          <mxGeometry width="50" height="50" relative="1" as="geometry">
            <mxPoint x="430" y="170" as="sourcePoint" />
            <mxPoint x="450" y="170" as="targetPoint" />
            <Array as="points">
              <mxPoint x="140" y="200" />
              <mxPoint x="290" y="200" />
            </Array>
          </mxGeometry>
        </mxCell>
        <mxCell id="uBWSTuV5O3R-H1wbQ9qK-15" value="" style="edgeStyle=segmentEdgeStyle;endArrow=classic;html=1;exitX=1;exitY=0.5;exitDx=0;exitDy=0;entryX=-0.04;entryY=0.39;entryDx=0;entryDy=0;entryPerimeter=0;" edge="1" parent="1" source="uBWSTuV5O3R-H1wbQ9qK-9" target="uBWSTuV5O3R-H1wbQ9qK-3">
          <mxGeometry width="50" height="50" relative="1" as="geometry">
            <mxPoint x="345" y="400" as="sourcePoint" />
            <mxPoint x="415" y="390" as="targetPoint" />
          </mxGeometry>
        </mxCell>
        <mxCell id="uBWSTuV5O3R-H1wbQ9qK-16" value="Request&lt;br&gt;Prior Authorization" style="rounded=0;whiteSpace=wrap;html=1;" vertex="1" parent="1">
          <mxGeometry x="230" y="460" width="120" height="60" as="geometry" />
        </mxCell>
        <mxCell id="uBWSTuV5O3R-H1wbQ9qK-17" value="" style="edgeStyle=segmentEdgeStyle;endArrow=classic;html=1;exitX=0.5;exitY=1;exitDx=0;exitDy=0;exitPerimeter=0;" edge="1" parent="1" source="uBWSTuV5O3R-H1wbQ9qK-3">
          <mxGeometry width="50" height="50" relative="1" as="geometry">
            <mxPoint x="465" y="420" as="sourcePoint" />
            <mxPoint x="465" y="460" as="targetPoint" />
          </mxGeometry>
        </mxCell>
        <mxCell id="uBWSTuV5O3R-H1wbQ9qK-18" value="" style="edgeStyle=segmentEdgeStyle;endArrow=classic;html=1;exitX=0.005;exitY=0.64;exitDx=0;exitDy=0;exitPerimeter=0;entryX=0.995;entryY=0.541;entryDx=0;entryDy=0;entryPerimeter=0;" edge="1" parent="1" source="uBWSTuV5O3R-H1wbQ9qK-4" target="uBWSTuV5O3R-H1wbQ9qK-16">
          <mxGeometry width="50" height="50" relative="1" as="geometry">
            <mxPoint x="415" y="500" as="sourcePoint" />
            <mxPoint x="465" y="450" as="targetPoint" />
          </mxGeometry>
        </mxCell>
        <mxCell id="uBWSTuV5O3R-H1wbQ9qK-19" value="RFI&amp;nbsp;&lt;br&gt;Rqstd&lt;br&gt;?" style="rhombus;whiteSpace=wrap;html=1;" vertex="1" parent="1">
          <mxGeometry x="250" y="550" width="80" height="80" as="geometry" />
        </mxCell>
        <mxCell id="uBWSTuV5O3R-H1wbQ9qK-20" value="Justify&lt;br&gt;?" style="rhombus;whiteSpace=wrap;html=1;" vertex="1" parent="1">
          <mxGeometry x="250" y="660" width="80" height="80" as="geometry" />
        </mxCell>
        <mxCell id="uBWSTuV5O3R-H1wbQ9qK-21" value="Approved" style="rhombus;whiteSpace=wrap;html=1;" vertex="1" parent="1">
          <mxGeometry x="250" y="770" width="80" height="80" as="geometry" />
        </mxCell>
        <mxCell id="uBWSTuV5O3R-H1wbQ9qK-24" value="Provider&lt;br&gt;Review" style="text;html=1;strokeColor=none;fillColor=none;align=center;verticalAlign=middle;whiteSpace=wrap;rounded=0;" vertex="1" parent="1">
          <mxGeometry x="515" y="695" width="40" height="20" as="geometry" />
        </mxCell>
        <mxCell id="uBWSTuV5O3R-H1wbQ9qK-25" value="Previous&lt;br&gt;Daily&lt;br&gt;Notes" style="text;html=1;strokeColor=none;fillColor=none;align=center;verticalAlign=middle;whiteSpace=wrap;rounded=0;" vertex="1" parent="1">
          <mxGeometry x="515" y="577.5" width="40" height="20" as="geometry" />
        </mxCell>
        <mxCell id="uBWSTuV5O3R-H1wbQ9qK-26" value="Expired&lt;br&gt;?" style="rhombus;whiteSpace=wrap;html=1;" vertex="1" parent="1">
          <mxGeometry x="500" y="900" width="80" height="80" as="geometry" />
        </mxCell>
        <mxCell id="uBWSTuV5O3R-H1wbQ9qK-27" value="ReEval&lt;br&gt;Yrly" style="rhombus;whiteSpace=wrap;html=1;" vertex="1" parent="1">
          <mxGeometry x="620" y="345" width="80" height="80" as="geometry" />
        </mxCell>
        <mxCell id="uBWSTuV5O3R-H1wbQ9qK-28" value="3 month&lt;br&gt;Update" style="rhombus;whiteSpace=wrap;html=1;" vertex="1" parent="1">
          <mxGeometry x="620" y="450" width="80" height="80" as="geometry" />
        </mxCell>
        <mxCell id="uBWSTuV5O3R-H1wbQ9qK-29" value="" style="edgeStyle=segmentEdgeStyle;endArrow=classic;html=1;exitX=0.5;exitY=1;exitDx=0;exitDy=0;entryX=0.5;entryY=0;entryDx=0;entryDy=0;" edge="1" parent="1" source="uBWSTuV5O3R-H1wbQ9qK-27" target="uBWSTuV5O3R-H1wbQ9qK-28">
          <mxGeometry width="50" height="50" relative="1" as="geometry">
            <mxPoint x="760" y="470" as="sourcePoint" />
            <mxPoint x="810" y="420" as="targetPoint" />
          </mxGeometry>
        </mxCell>
        <mxCell id="uBWSTuV5O3R-H1wbQ9qK-30" value="" style="edgeStyle=segmentEdgeStyle;endArrow=classic;html=1;exitX=0;exitY=0.5;exitDx=0;exitDy=0;" edge="1" parent="1" source="uBWSTuV5O3R-H1wbQ9qK-27">
          <mxGeometry width="50" height="50" relative="1" as="geometry">
            <mxPoint x="580" y="450" as="sourcePoint" />
            <mxPoint x="580" y="385" as="targetPoint" />
          </mxGeometry>
        </mxCell>
        <mxCell id="uBWSTuV5O3R-H1wbQ9qK-31" value="" style="edgeStyle=segmentEdgeStyle;endArrow=classic;html=1;exitX=0;exitY=0.5;exitDx=0;exitDy=0;" edge="1" parent="1" source="uBWSTuV5O3R-H1wbQ9qK-28">
          <mxGeometry width="50" height="50" relative="1" as="geometry">
            <mxPoint x="570" y="570" as="sourcePoint" />
            <mxPoint x="580" y="490" as="targetPoint" />
          </mxGeometry>
        </mxCell>
        <mxCell id="uBWSTuV5O3R-H1wbQ9qK-32" value="" style="edgeStyle=segmentEdgeStyle;endArrow=classic;html=1;exitX=0.5;exitY=1;exitDx=0;exitDy=0;" edge="1" parent="1" source="uBWSTuV5O3R-H1wbQ9qK-16">
          <mxGeometry width="50" height="50" relative="1" as="geometry">
            <mxPoint x="370" y="590" as="sourcePoint" />
            <mxPoint x="290" y="550" as="targetPoint" />
          </mxGeometry>
        </mxCell>
        <mxCell id="uBWSTuV5O3R-H1wbQ9qK-34" value="" style="edgeStyle=segmentEdgeStyle;endArrow=classic;html=1;exitX=0.5;exitY=1;exitDx=0;exitDy=0;entryX=0.5;entryY=0;entryDx=0;entryDy=0;" edge="1" parent="1" source="uBWSTuV5O3R-H1wbQ9qK-19" target="uBWSTuV5O3R-H1wbQ9qK-20">
          <mxGeometry width="50" height="50" relative="1" as="geometry">
            <mxPoint x="200" y="670" as="sourcePoint" />
            <mxPoint x="250" y="620" as="targetPoint" />
          </mxGeometry>
        </mxCell>
        <mxCell id="uBWSTuV5O3R-H1wbQ9qK-35" value="" style="edgeStyle=segmentEdgeStyle;endArrow=classic;html=1;exitX=0.5;exitY=1;exitDx=0;exitDy=0;" edge="1" parent="1" source="uBWSTuV5O3R-H1wbQ9qK-20">
          <mxGeometry width="50" height="50" relative="1" as="geometry">
            <mxPoint x="480" y="710" as="sourcePoint" />
            <mxPoint x="290" y="770" as="targetPoint" />
          </mxGeometry>
        </mxCell>
        <mxCell id="uBWSTuV5O3R-H1wbQ9qK-36" value="Wait/Track &lt;br&gt;Visits and Time" style="rounded=0;whiteSpace=wrap;html=1;" vertex="1" parent="1">
          <mxGeometry x="230" y="910" width="120" height="60" as="geometry" />
        </mxCell>
        <mxCell id="uBWSTuV5O3R-H1wbQ9qK-38" value="" style="edgeStyle=segmentEdgeStyle;endArrow=classic;html=1;exitX=0.5;exitY=1;exitDx=0;exitDy=0;entryX=0.5;entryY=-0.033;entryDx=0;entryDy=0;entryPerimeter=0;" edge="1" parent="1" source="uBWSTuV5O3R-H1wbQ9qK-21" target="uBWSTuV5O3R-H1wbQ9qK-36">
          <mxGeometry width="50" height="50" relative="1" as="geometry">
            <mxPoint x="480" y="880" as="sourcePoint" />
            <mxPoint x="284" y="890" as="targetPoint" />
          </mxGeometry>
        </mxCell>
        <mxCell id="uBWSTuV5O3R-H1wbQ9qK-39" value="" style="edgeStyle=segmentEdgeStyle;endArrow=classic;html=1;exitX=1;exitY=0.5;exitDx=0;exitDy=0;entryX=0;entryY=0.5;entryDx=0;entryDy=0;" edge="1" parent="1" source="uBWSTuV5O3R-H1wbQ9qK-36" target="uBWSTuV5O3R-H1wbQ9qK-26">
          <mxGeometry width="50" height="50" relative="1" as="geometry">
            <mxPoint x="390" y="960" as="sourcePoint" />
            <mxPoint x="440" y="910" as="targetPoint" />
          </mxGeometry>
        </mxCell>
        <mxCell id="uBWSTuV5O3R-H1wbQ9qK-40" value="" style="edgeStyle=segmentEdgeStyle;endArrow=classic;html=1;exitX=1;exitY=0.5;exitDx=0;exitDy=0;" edge="1" parent="1" source="uBWSTuV5O3R-H1wbQ9qK-19">
          <mxGeometry width="50" height="50" relative="1" as="geometry">
            <mxPoint x="360" y="610" as="sourcePoint" />
            <mxPoint x="445" y="590" as="targetPoint" />
          </mxGeometry>
        </mxCell>
        <mxCell id="uBWSTuV5O3R-H1wbQ9qK-41" value="" style="edgeStyle=segmentEdgeStyle;endArrow=classic;html=1;exitX=0.5;exitY=1;exitDx=0;exitDy=0;exitPerimeter=0;" edge="1" parent="1">
          <mxGeometry width="50" height="50" relative="1" as="geometry">
            <mxPoint x="465" y="610.0000000000001" as="sourcePoint" />
            <mxPoint x="290" y="640" as="targetPoint" />
            <Array as="points">
              <mxPoint x="465" y="640" />
            </Array>
          </mxGeometry>
        </mxCell>
        <mxCell id="uBWSTuV5O3R-H1wbQ9qK-42" value="" style="edgeStyle=segmentEdgeStyle;endArrow=classic;html=1;exitX=0.5;exitY=1;exitDx=0;exitDy=0;exitPerimeter=0;" edge="1" parent="1">
          <mxGeometry width="50" height="50" relative="1" as="geometry">
            <mxPoint x="465" y="720" as="sourcePoint" />
            <mxPoint x="290" y="750" as="targetPoint" />
            <Array as="points">
              <mxPoint x="465" y="750" />
            </Array>
          </mxGeometry>
        </mxCell>
        <mxCell id="uBWSTuV5O3R-H1wbQ9qK-43" value="" style="edgeStyle=segmentEdgeStyle;endArrow=classic;html=1;exitX=1;exitY=0.5;exitDx=0;exitDy=0;" edge="1" parent="1" source="uBWSTuV5O3R-H1wbQ9qK-20">
          <mxGeometry width="50" height="50" relative="1" as="geometry">
            <mxPoint x="330" y="694.88" as="sourcePoint" />
            <mxPoint x="445" y="700" as="targetPoint" />
          </mxGeometry>
        </mxCell>
        <mxCell id="uBWSTuV5O3R-H1wbQ9qK-44" value="" style="edgeStyle=segmentEdgeStyle;endArrow=classic;html=1;entryX=1;entryY=0.5;entryDx=0;entryDy=0;" edge="1" parent="1" target="uBWSTuV5O3R-H1wbQ9qK-27">
          <mxGeometry width="50" height="50" relative="1" as="geometry">
            <mxPoint x="580" y="940" as="sourcePoint" />
            <mxPoint x="770" y="390" as="targetPoint" />
            <Array as="points">
              <mxPoint x="770" y="940" />
              <mxPoint x="770" y="385" />
            </Array>
          </mxGeometry>
        </mxCell>
        <mxCell id="uBWSTuV5O3R-H1wbQ9qK-45" value="" style="shape=crossbar;whiteSpace=wrap;html=1;rounded=1;direction=south;" vertex="1" parent="1">
          <mxGeometry x="90" y="490" width="20" height="320" as="geometry" />
        </mxCell>
        <mxCell id="uBWSTuV5O3R-H1wbQ9qK-47" value="&lt;b&gt;&lt;i&gt;Timing:&lt;br&gt;&lt;/i&gt;&lt;/b&gt;&lt;br&gt;minutes&lt;br&gt;upto&lt;br&gt;2+&lt;br&gt;Weeks" style="text;html=1;strokeColor=none;fillColor=none;align=center;verticalAlign=middle;whiteSpace=wrap;rounded=0;" vertex="1" parent="1">
          <mxGeometry x="110" y="585" width="40" height="130" as="geometry" />
        </mxCell>
        <mxCell id="uBWSTuV5O3R-H1wbQ9qK-48" value="" style="html=1;verticalLabelPosition=bottom;align=center;labelBackgroundColor=#ffffff;verticalAlign=top;strokeWidth=2;strokeColor=#0080F0;shadow=0;dashed=0;shape=mxgraph.ios7.icons.document;" vertex="1" parent="1">
          <mxGeometry x="445" y="565" width="35.5" height="45" as="geometry" />
        </mxCell>
        <mxCell id="uBWSTuV5O3R-H1wbQ9qK-49" value="" style="html=1;verticalLabelPosition=bottom;align=center;labelBackgroundColor=#ffffff;verticalAlign=top;strokeWidth=2;strokeColor=#0080F0;shadow=0;dashed=0;shape=mxgraph.ios7.icons.document;" vertex="1" parent="1">
          <mxGeometry x="445" y="677.5" width="35.5" height="45" as="geometry" />
        </mxCell>
        <mxCell id="uBWSTuV5O3R-H1wbQ9qK-50" value="&lt;i&gt;Approvals are typically for&lt;br&gt;&amp;nbsp;26 or 52 visits&lt;br&gt;(sometimes 104 visits)&lt;br&gt;Time frames: 3 mos, 6mos, 1 year&lt;/i&gt;" style="text;html=1;strokeColor=none;fillColor=none;align=center;verticalAlign=middle;whiteSpace=wrap;rounded=0;" vertex="1" parent="1">
          <mxGeometry x="307.5" y="980" width="215" height="70" as="geometry" />
        </mxCell>
        <mxCell id="uBWSTuV5O3R-H1wbQ9qK-51" value="&lt;font style=&quot;font-size: 11px&quot;&gt;&lt;b&gt;BENEFITS&lt;br&gt;&lt;/b&gt;&lt;br&gt;&lt;i&gt;Faster Payment &lt;br&gt;processing Response&lt;/i&gt;&lt;br&gt;&lt;br&gt;&lt;i&gt;New PA&#39;s notification &lt;br&gt;prior to expiration &lt;br&gt;- seamless patient care&lt;/i&gt;&lt;br&gt;&lt;br&gt;&lt;i&gt;Less Appeals &lt;br&gt;for Claim submission due timing/clerical errors.&lt;/i&gt;&lt;br&gt;&lt;br&gt;&lt;i&gt;Removes the need &lt;br&gt;for the clinic to be &lt;br&gt;a collection agency&lt;/i&gt;&lt;/font&gt;" style="text;html=1;strokeColor=#666666;fillColor=#f5f5f5;align=center;verticalAlign=middle;whiteSpace=wrap;rounded=1;fontColor=#333333;glass=0;shadow=0;sketch=0;" vertex="1" parent="1">
          <mxGeometry x="630" y="40" width="150" height="260" as="geometry" />
        </mxCell>
        <mxCell id="uBWSTuV5O3R-H1wbQ9qK-52" value="&lt;h1&gt;PA Tracker&lt;/h1&gt;&lt;p&gt;Manual activity/process steps to help understand the need for the application&lt;/p&gt;" style="text;html=1;strokeColor=#6c8ebf;fillColor=#dae8fc;spacing=5;spacingTop=-20;whiteSpace=wrap;overflow=hidden;rounded=1;align=center;" vertex="1" parent="1">
          <mxGeometry x="290" y="40" width="250" height="90" as="geometry" />
        </mxCell>
      </root>
    </mxGraphModel>
  </diagram>
</mxfile>
